<?xml version="1.0" encoding="iso-8859-1"?>
<!-- Uploaded to: SVG Repo, www.svgrepo.com, Generator: SVG Repo Mixer Tools -->
<svg fill="#000000" height="800px" width="800px" version="1.1" id="Layer_1" xmlns="http://www.w3.org/2000/svg" xmlns:xlink="http://www.w3.org/1999/xlink" 
	 viewBox="0 0 512.001 512.001" xml:space="preserve">
<g>
	<g>
		<path d="M429.531,345.86c-25.841,0-49.488,11.769-64.918,31.551L162.241,276.925c1.755-6.685,2.698-13.696,2.698-20.925
			c0-7.229-0.943-14.24-2.698-20.926l202.457-100.526c15.112,19.216,38.547,31.592,64.833,31.592
			c45.473,0,82.469-36.995,82.469-82.469c0-45.474-36.995-82.468-82.469-82.468s-82.469,36.995-82.469,82.469
			c0,7.229,0.942,14.24,2.697,20.925L147.302,205.124c-15.112-19.216-38.547-31.592-64.833-31.592
			C36.995,173.532,0,210.527,0,256.001s36.995,82.469,82.469,82.469c26.287,0,49.722-12.378,64.834-31.592l202.433,100.514
			c-1.776,6.776-2.672,13.774-2.672,20.937c0,45.474,36.995,82.469,82.469,82.469c45.474,0,82.469-36.995,82.469-82.469
			C512.001,382.855,475.005,345.86,429.531,345.86z M429.531,34.675c27.018,0,48.998,21.98,48.998,48.998
			c0,27.018-21.98,48.998-48.998,48.998c-27.018,0-48.998-21.98-48.998-48.998C380.533,56.655,402.513,34.675,429.531,34.675z
			 M82.469,304.999c-27.018,0-48.998-21.981-48.998-48.998s21.98-48.998,48.998-48.998c27.019,0,48.999,21.98,48.999,48.998
			C131.468,283.018,109.488,304.999,82.469,304.999z M429.531,477.326c-27.018,0-48.998-21.98-48.998-48.998
			c0-26.683,21.414-48.998,48.998-48.998c27.018,0,48.998,21.98,48.998,48.998S456.549,477.326,429.531,477.326z"/>
	</g>
</g>
</svg>