<?xml version="1.0" encoding="iso-8859-1"?>
<!-- Uploaded to: SVG Repo, www.svgrepo.com, Generator: SVG Repo Mixer Tools -->
<!DOCTYPE svg PUBLIC "-//W3C//DTD SVG 1.1//EN" "http://www.w3.org/Graphics/SVG/1.1/DTD/svg11.dtd">
<svg fill="#000000" version="1.1" id="Capa_1" xmlns="http://www.w3.org/2000/svg" xmlns:xlink="http://www.w3.org/1999/xlink" 
	 width="800px" height="800px" viewBox="0 0 111.67 111.67"
	 xml:space="preserve">
<g>
	<path d="M70.527,7.011h-29v29h29V7.011z M65.527,31.011h-19v-19h19V31.011z M96.545,73.815c-8.34,0-15.125,6.785-15.125,15.125
		s6.785,15.125,15.125,15.125S111.67,97.28,111.67,88.94S104.885,73.815,96.545,73.815z M96.545,99.065
		c-5.583,0-10.125-4.543-10.125-10.125c0-5.584,4.542-10.125,10.125-10.125s10.125,4.541,10.125,10.125
		C106.67,94.522,102.128,99.065,96.545,99.065z M9.075,73.224L0,88.94l9.075,15.719h18.148l9.075-15.719l-9.075-15.717H9.075
		L9.075,73.224z M24.337,99.659H11.962L5.774,88.94l6.188-10.717h12.375l6.188,10.717L24.337,99.659z M20.63,69.808h-5V54.642h0.016
		v-2.346H30.13h4.059h19.34V40.963h5v11.333h40.465v2.346h0.052v15.166h-5V57.296H34.189H30.13h-9.5V69.808z"/>
</g>
</svg>