<?xml version="1.0" encoding="iso-8859-1"?>
<!-- Uploaded to: SVG Repo, www.svgrepo.com, Generator: SVG Repo Mixer Tools -->
<!DOCTYPE svg PUBLIC "-//W3C//DTD SVG 1.1//EN" "http://www.w3.org/Graphics/SVG/1.1/DTD/svg11.dtd">
<svg fill="#000000" version="1.1" id="Capa_1" xmlns="http://www.w3.org/2000/svg" xmlns:xlink="http://www.w3.org/1999/xlink" 
	 width="800px" height="800px" viewBox="0 0 589.057 589.057"
	 xml:space="preserve">
<g>
	<g>
		<g>
			<path d="M571.649,136.538c16.739-17.18,21.531-42.561,12.208-64.66C574.535,49.78,553.012,35.5,529.028,35.5L60.03,35.494h0
				c-23.985,0-45.507,14.28-54.83,36.379c-9.323,22.099-4.53,47.479,12.208,64.658l255.701,262.429v111.761h-51.724
				c-11.83,0-21.42,9.591-21.42,21.421c0,11.829,9.59,21.42,21.42,21.42h146.289c11.83,0,21.42-9.591,21.42-21.42
				c0-11.83-9.59-21.421-21.42-21.421h-51.726V398.961L571.649,136.538z M48.092,106.635C37.801,96.073,45.284,78.333,60.03,78.333
				l468.998,0.006c14.746,0,22.229,17.739,11.938,28.301L294.529,359.557L48.092,106.635z"/>
			<path d="M367.673,554.062H221.385c-12.087,0-21.92-9.833-21.92-21.92s9.833-21.921,21.92-21.921h51.224V399.164L17.05,136.881
				C0.17,119.557-4.662,93.964,4.739,71.679c9.4-22.285,31.103-36.685,55.29-36.685L529.028,35c24.187,0,45.889,14.399,55.29,36.684
				s4.569,47.878-12.311,65.203l-255.56,262.277v111.058h51.226c12.087,0,21.92,9.834,21.92,21.921S379.76,554.062,367.673,554.062z
				 M221.385,511.222c-11.535,0-20.92,9.385-20.92,20.921c0,11.535,9.385,20.92,20.92,20.92h146.289
				c11.535,0,20.92-9.385,20.92-20.92c0-11.536-9.385-20.921-20.92-20.921h-52.226V398.758l0.142-0.146l255.701-262.423
				c16.599-17.036,21.351-42.203,12.105-64.116C574.152,50.16,552.811,36,529.028,36L60.03,35.994
				c-23.784,0-45.125,14.16-54.369,36.074c-9.245,21.914-4.493,47.08,12.105,64.115l255.843,262.575v112.464H221.385z
				 M294.529,360.273l-0.358-0.368L47.734,106.984c-4.904-5.033-6.253-12.181-3.522-18.655s8.792-10.496,15.818-10.496
				l468.998,0.006c7.026,0,13.087,4.021,15.818,10.495c2.731,6.474,1.382,13.623-3.521,18.656L294.529,360.273z M60.03,78.833
				c-6.617,0-12.325,3.788-14.897,9.884c-2.572,6.097-1.301,12.829,3.317,17.568L294.529,358.84l246.079-252.548
				c4.618-4.74,5.889-11.472,3.316-17.568c-2.571-6.097-8.279-9.884-14.896-9.884L60.03,78.833z"/>
		</g>
		<g>
			<path d="M325.434,275.055l62.833-65.458l69.599-72.506l-100.504,0l-126.999-0.001l-101.986,0l71.392,72.83l64.167,65.458
				l30.916,31.537L325.434,275.055z M230.362,179.929l127,0.001l-62.833,65.457L230.362,179.929z"/>
			<path d="M294.855,307.632L127.187,136.589l331.852,0.002L294.855,307.632z M129.567,137.589l165.28,168.607l161.846-168.605
				L129.567,137.589z M294.533,246.106l-65.361-66.677l129.363,0.001L294.533,246.106z M231.553,180.429l62.972,64.24l61.664-64.239
				L231.553,180.429z"/>
		</g>
	</g>
</g>
</svg>